<svg xmlns="http://www.w3.org/2000/svg" viewBox="0 0 720 348" width="720" height="348" role="img"><style>
  :root{
    --f:#fbfcfd; --c:#ffffff; --b:#dfe4ea; --b2:#eef1f4;
    --t:#101418; --t2:#4d5765; --t3:#8a94a3;
    --v:#1f9d55; --vf:#e6f6ed; --vb:#7ed4a3;
    --r:#c0392b; --rf:#fdecea;
  }
  @media (prefers-color-scheme: dark){
    :root{
      --f:#11151b; --c:#171c24; --b:#2b3340; --b2:#222834;
      --t:#eef1f5; --t2:#a8b2c0; --t3:#6c7686;
      --v:#4ade80; --vf:#13291d; --vb:#2f6b47;
      --r:#f87171; --rf:#2a1719;
    }
  }
  .fond{fill:var(--f)} .carte{fill:var(--c)} .bord{stroke:var(--b);fill:none}
  .bord2{stroke:var(--b2);fill:none}
  text{font-family:'IBM Plex Sans',ui-sans-serif,system-ui,-apple-system,sans-serif}
  .t{fill:var(--t)} .t2{fill:var(--t2)} .t3{fill:var(--t3)}
  .mono{font-family:'IBM Plex Mono',ui-monospace,'SF Mono',Menlo,monospace}
  .eti{font-size:11px;letter-spacing:.11em;text-transform:uppercase;fill:var(--t3);
       font-family:'IBM Plex Mono',ui-monospace,monospace}
  .h{font-size:15px;font-weight:600;fill:var(--t)}
  .p{font-size:13px;fill:var(--t2)}
  .vfill{fill:var(--vf)} .vstroke{stroke:var(--vb);fill:none} .vtext{fill:var(--v)}
  .rfill{fill:var(--rf)} .rtext{fill:var(--r)}
</style><rect width="720" height="348" rx="8" class="fond"/><text x="24" y="30" class="eti">Ce qui change quand on appuie sur Ctrl + L</text><text x="24" y="62" class="h">Une plage</text><text x="24" y="82" class="p">Un rectangle. Excel n'en sait rien d'autre.</text><rect x="24" y="98" width="288" height="130" rx="3" class="carte"/><rect x="24" y="98" width="288" height="26" rx="3" class="vfill"/><text x="33" y="115.0" class="mono" font-size="10.5" fill="var(--t2)">A</text><text x="129" y="115.0" class="mono" font-size="10.5" fill="var(--t2)">B</text><text x="225" y="115.0" class="mono" font-size="10.5" fill="var(--t2)">C</text><line x1="24" y1="98" x2="312" y2="98" class="bord2"/><line x1="24" y1="124" x2="312" y2="124" class="bord2"/><line x1="24" y1="150" x2="312" y2="150" class="bord2"/><line x1="24" y1="176" x2="312" y2="176" class="bord2"/><line x1="24" y1="202" x2="312" y2="202" class="bord2"/><line x1="24" y1="228" x2="312" y2="228" class="bord2"/><line x1="24" y1="98" x2="24" y2="228" class="bord2"/><line x1="120" y1="98" x2="120" y2="228" class="bord2"/><line x1="216" y1="98" x2="216" y2="228" class="bord2"/><line x1="312" y1="98" x2="312" y2="228" class="bord2"/><text x="33" y="141.0" class="mono t2" font-size="11">Ticket</text><text x="129" y="141.0" class="mono t2" font-size="11">Qté</text><text x="225" y="141.0" class="mono t2" font-size="11">Montant</text><text x="33" y="167.0" class="mono t" font-size="11">KIN-0001</text><text x="129" y="167.0" class="mono t" font-size="11">12</text><text x="225" y="167.0" class="mono t" font-size="11">410 400</text><text x="33" y="193.0" class="mono t" font-size="11">KIN-0002</text><text x="129" y="193.0" class="mono t" font-size="11">4</text><text x="225" y="193.0" class="mono t" font-size="11">648 000</text><text x="33" y="219.0" class="mono t" font-size="11">KIN-0003</text><text x="129" y="219.0" class="mono t" font-size="11">18</text><text x="225" y="219.0" class="mono t" font-size="11">367 200</text><rect x="24" y="98" width="288" height="130" rx="3" class="bord"/><text x="24" y="252" class="mono" font-size="11" fill="var(--r)">+ 1 ligne</text><text x="96" y="252" class="p" font-size="12">le graphique ne la voit pas</text><text x="24" y="272" class="mono" font-size="11" fill="var(--r)">+ 1 ligne</text><text x="96" y="272" class="p" font-size="12">le TCD ne la voit pas</text><text x="24" y="292" class="mono" font-size="11" fill="var(--r)">+ 1 ligne</text><text x="96" y="292" class="p" font-size="12">la formule s'arrête avant</text><line x1="352" y1="46" x2="352" y2="300" class="bord2"/><text x="384" y="62" class="h">Un tableau structuré</text><text x="384" y="82" class="p">Un objet nommé, qui connaît sa taille.</text><rect x="384" y="98" width="288" height="130" rx="3" class="carte"/><rect x="384" y="98" width="288" height="26" rx="3" class="vfill"/><text x="393" y="115.0" class="mono" font-size="10.5" fill="var(--t2)">Ticket</text><text x="489" y="115.0" class="mono" font-size="10.5" fill="var(--t2)">Qté</text><text x="585" y="115.0" class="mono" font-size="10.5" fill="var(--t2)">Montant</text><line x1="384" y1="98" x2="672" y2="98" class="bord2"/><line x1="384" y1="124" x2="672" y2="124" class="bord2"/><line x1="384" y1="150" x2="672" y2="150" class="bord2"/><line x1="384" y1="176" x2="672" y2="176" class="bord2"/><line x1="384" y1="202" x2="672" y2="202" class="bord2"/><line x1="384" y1="228" x2="672" y2="228" class="bord2"/><line x1="384" y1="98" x2="384" y2="228" class="bord2"/><line x1="480" y1="98" x2="480" y2="228" class="bord2"/><line x1="576" y1="98" x2="576" y2="228" class="bord2"/><line x1="672" y1="98" x2="672" y2="228" class="bord2"/><rect x="384" y="98" width="288" height="130" class="vstroke" stroke-width="2" rx="2"/><text x="393" y="141.0" class="mono t" font-size="11">KIN-0001</text><text x="489" y="141.0" class="mono t" font-size="11">12</text><text x="585" y="141.0" class="mono t" font-size="11">410 400</text><text x="393" y="167.0" class="mono t" font-size="11">KIN-0002</text><text x="489" y="167.0" class="mono t" font-size="11">4</text><text x="585" y="167.0" class="mono t" font-size="11">648 000</text><text x="393" y="193.0" class="mono t" font-size="11">KIN-0003</text><text x="489" y="193.0" class="mono t" font-size="11">18</text><text x="585" y="193.0" class="mono t" font-size="11">367 200</text><text x="393" y="219.0" class="mono vtext" font-size="11">KIN-0004</text><text x="489" y="219.0" class="mono vtext" font-size="11">7</text><text x="585" y="219.0" class="mono vtext" font-size="11">238 000</text><rect x="384" y="98" width="288" height="130" rx="3" class="bord"/><text x="384" y="252" class="mono" font-size="11" fill="var(--v)">+ 1 ligne</text><text x="456" y="252" class="p" font-size="12">le graphique la prend</text><text x="384" y="272" class="mono" font-size="11" fill="var(--v)">+ 1 ligne</text><text x="456" y="272" class="p" font-size="12">le TCD la prend</text><text x="384" y="292" class="mono" font-size="11" fill="var(--v)">+ 1 ligne</text><text x="456" y="292" class="p" font-size="12">la formule s'étend toute seule</text><text x="384" y="326" class="mono" font-size="11.5" fill="var(--t3)">=SOMME(t_Caisse[Montant])  ne bouge jamais</text></svg>